<?xml version="1.0" standalone="no"?>
<!DOCTYPE svg PUBLIC "-//W3C//DTD SVG 20010904//EN"
 "http://www.w3.org/TR/2001/REC-SVG-20010904/DTD/svg10.dtd">
<svg version="1.0" xmlns="http://www.w3.org/2000/svg"
 width="300.000000pt" height="300.000000pt" viewBox="0 0 300.000000 300.000000"
 preserveAspectRatio="xMidYMid meet">

<g transform="translate(0.000000,300.000000) scale(0.100000,-0.100000)"
fill="#000000" stroke="none">
<path d="M0 2854 c0 -95 3 -143 10 -139 13 8 23 -18 17 -42 -3 -15 -6 -14 -15
7 -8 18 -11 -102 -11 -462 l-1 -488 31 -96 c17 -53 55 -155 85 -227 30 -71 53
-134 52 -139 -4 -10 -68 114 -68 130 0 5 -11 7 -25 4 -27 -5 -33 9 -12 30 10
11 6 31 -25 113 l-37 100 -1 -110 c0 -74 4 -115 12 -123 9 -9 9 -12 0 -12 -7
0 -12 -12 -12 -27 0 -22 11 -35 51 -62 83 -56 141 -121 194 -216 59 -106 155
-211 236 -261 68 -41 102 -42 41 -1 -35 23 -152 154 -152 170 0 3 23 -10 51
-28 55 -38 105 -55 159 -55 57 0 68 16 16 22 -56 7 -120 39 -168 86 -56 53
-49 63 25 36 35 -12 100 -30 143 -39 43 -8 87 -18 96 -21 11 -3 18 0 18 9 0
10 -19 16 -67 20 -139 12 -267 70 -307 139 l-19 31 24 -6 c13 -3 99 -25 192
-48 92 -23 170 -40 173 -36 14 14 -11 27 -52 27 -24 0 -44 5 -44 10 0 6 -15
10 -32 10 -32 0 -184 37 -240 59 -56 21 -112 188 -132 394 -8 78 -19 156 -25
172 -9 25 -81 419 -81 444 0 5 10 21 22 36 l21 27 16 -33 c21 -44 49 -48 105
-15 69 41 72 48 31 91 -19 21 -34 39 -33 40 2 1 21 7 43 13 30 7 34 10 15 11
-41 2 -53 14 -41 42 25 59 41 268 25 322 -3 9 -1 17 4 17 22 0 70 -172 74
-266 2 -34 6 -60 10 -57 5 2 8 15 8 28 0 13 5 27 11 31 8 4 10 -9 8 -44 -7
-96 28 -6 37 97 4 42 0 100 -10 160 -16 93 -15 126 3 80 5 -13 18 -47 29 -75
11 -28 26 -89 33 -135 l13 -84 17 55 17 55 1 -49 c2 -75 20 -44 27 47 7 83 12
91 60 101 29 6 31 4 42 -31 25 -85 25 -84 -2 -107 -33 -27 -43 -74 -21 -101
14 -19 15 -18 3 8 -10 24 -9 31 9 55 26 35 59 40 89 11 30 -28 31 -57 2 -69
-13 -5 -16 -9 -8 -9 8 0 26 6 40 14 14 8 19 14 13 15 -7 0 -13 9 -13 20 0 12
-11 31 -25 44 -22 20 -23 25 -9 30 25 10 84 7 84 -4 0 -5 6 -7 13 -4 19 7 30
-11 50 -78 20 -65 42 -90 32 -36 -4 19 1 75 10 126 23 123 11 216 -40 319 -31
62 -40 73 -62 73 -25 0 -25 -1 -9 -22 30 -40 84 -162 91 -203 4 -22 9 -49 11
-60 4 -16 3 -17 -4 -5 -6 8 -13 31 -17 50 -8 42 -55 137 -96 197 -31 45 -69
59 -69 26 -1 -17 -1 -17 -11 0 -8 13 -23 17 -69 17 -40 0 -60 -4 -60 -12 0 -9
-3 -9 -12 0 -7 7 -40 12 -79 12 l-67 0 26 -62 c16 -40 27 -87 28 -128 3 -59 2
-62 -7 -30 -74 239 -59 220 -173 220 l-94 0 25 -61 c13 -33 22 -68 20 -77 -3
-15 -5 -14 -11 3 -4 11 -17 46 -29 78 l-22 57 -112 0 -113 0 0 -146z m361 69
c5 -15 8 -38 6 -52 l-3 -26 -12 28 c-7 15 -15 39 -18 52 -9 34 14 32 27 -2z
m265 -96 c20 -38 32 -72 28 -77 -5 -4 -21 -10 -36 -14 -25 -6 -28 -3 -34 31
-3 21 -12 61 -19 88 -8 28 -17 61 -20 75 -7 24 -6 24 19 -5 14 -16 42 -61 62
-98z m-557 6 c22 -85 27 -134 13 -118 -11 12 -52 172 -52 200 0 38 19 0 39
-82z m140 61 c6 -15 9 -29 6 -33 -8 -7 -35 28 -35 46 0 22 16 15 29 -13z m561
-71 c22 -35 27 -49 17 -55 -21 -13 -25 -10 -41 39 -27 79 -19 85 24 16z m56
-98 c21 -51 19 -78 -6 -70 -11 4 -20 2 -20 -4 0 -6 -11 -11 -25 -11 -14 0 -25
-4 -25 -10 0 -5 -3 -10 -8 -10 -4 0 -6 18 -4 40 4 44 18 53 25 18 2 -13 2 -2
0 24 -5 46 -2 51 40 57 4 0 15 -15 23 -34z m-616 -65 c12 -50 9 -80 -9 -80 -5
0 -11 29 -13 65 -1 36 0 65 4 65 3 0 11 -23 18 -50z m24 -127 c3 -21 8 -59 11
-85 l6 -48 -63 -40 c-35 -21 -70 -46 -79 -55 -27 -26 -43 -11 -16 17 15 15 29
45 32 68 1 8 7 24 14 35 11 18 12 18 8 -8 -3 -18 0 -26 7 -24 6 2 11 10 11 18
3 72 32 159 54 159 5 0 12 -17 15 -37z m-134 -43 c0 -16 -4 -30 -10 -30 -5 0
-10 14 -10 30 0 17 5 30 10 30 6 0 10 -13 10 -30z m-10 -144 c-6 -16 -13 -26
-17 -22 -10 10 -4 86 9 109 12 21 13 19 16 -19 2 -22 -2 -53 -8 -68z m207 -22
c21 -32 13 -46 -41 -75 -58 -31 -81 -20 -81 37 0 34 4 41 33 55 40 20 68 15
89 -17z m-151 -1062 c-4 -3 -14 2 -24 12 -16 18 -16 18 6 6 13 -6 21 -14 18
-18z"/>
<path d="M910 2997 c0 -2 13 -30 30 -63 33 -68 62 -167 49 -172 -5 -2 -8 -13
-8 -25 1 -17 2 -18 6 -4 2 9 8 17 13 17 19 0 19 39 1 91 -33 98 -63 159 -77
159 -8 0 -14 -2 -14 -3z"/>
<path d="M985 2944 c14 -31 31 -78 39 -104 14 -46 13 -49 -15 -106 -35 -71
-63 -195 -54 -244 16 -92 16 -97 5 -72 -9 22 -13 23 -122 20 l-113 -3 0 -1025
0 -1025 27 0 26 1 -19 -25 c-27 -34 -25 -96 4 -125 23 -23 23 -23 3 -32 -32
-14 -32 -59 -1 -90 22 -22 32 -25 63 -19 49 8 62 28 62 91 0 45 -4 56 -26 73
l-27 21 27 0 c23 0 26 4 26 35 0 21 -7 41 -20 53 -19 18 -19 18 15 14 33 -4
34 -5 44 -71 6 -36 15 -97 19 -136 l7 -70 52 -3 c48 -3 53 -1 57 20 7 34 31
231 29 245 0 7 7 13 16 14 9 0 26 2 39 5 l23 4 -22 -29 c-19 -26 -21 -39 -17
-131 4 -121 11 -130 99 -130 l58 0 4 -47 c2 -27 3 15 1 92 -2 77 -3 154 -4
172 0 18 -8 40 -19 50 -19 17 -15 18 105 20 75 1 124 -1 124 -7 0 -6 -33 -10
-74 -10 -73 0 -73 0 -68 -25 6 -33 16 -38 77 -38 39 0 51 -4 53 -16 2 -14 10
-154 12 -188 0 -8 23 -13 63 -16 38 -2 18 -4 -51 -5 -110 -2 -114 -1 -120 21
-6 22 -6 22 -13 -3 -4 -14 -7 -42 -8 -62 l-1 -38 170 0 c94 0 170 3 170 8 0 4
-5 23 -10 43 -9 32 -13 35 -39 31 l-28 -4 5 51 5 51 -32 0 c-38 0 -41 17 -3
22 23 3 27 8 30 40 3 34 1 37 -30 44 l-33 8 30 5 c27 6 30 10 33 49 3 34 7 42
23 42 18 0 19 -8 19 -144 l0 -144 33 -5 c37 -5 47 5 47 51 0 27 4 32 24 32 38
0 56 35 56 106 0 56 -3 65 -26 83 l-27 21 69 0 c57 -1 65 -3 49 -12 -30 -17
-35 -28 -35 -78 1 -47 17 -79 41 -81 8 -1 3 -4 -11 -8 -20 -5 -26 -14 -28 -41
-4 -46 15 -69 60 -77 42 -6 88 16 88 43 0 8 4 13 8 10 16 -10 -5 97 -22 109
-14 11 -15 13 -1 19 24 9 20 83 -5 98 -31 20 -24 24 35 20 50 -2 56 0 64 20 5
13 8 24 7 25 -1 1 -298 5 -661 8 -363 4 -663 9 -668 12 -4 3 -7 142 -6 309 l1
304 103 94 102 95 -5 290 c-4 269 -3 293 14 328 13 26 22 82 31 178 l12 140
-4 -130 c-3 -106 -7 -139 -25 -180 -19 -43 -21 -63 -17 -140 5 -102 59 -342
88 -393 21 -37 23 -46 9 -37 -6 4 -10 -11 -11 -37 0 -24 -4 -52 -9 -63 -6 -13
-7 2 -3 40 3 33 7 62 9 64 2 2 -3 19 -11 38 -8 20 -24 75 -36 124 -28 121 -44
108 -36 -30 4 -58 9 -133 13 -167 6 -60 6 -61 -22 -73 -16 -6 -40 -21 -54 -32
-20 -16 -14 -15 24 5 27 15 51 24 54 21 3 -3 1 -22 -4 -43 l-9 -37 -60 -3
c-70 -3 -105 -9 -105 -20 0 -4 36 -5 80 -2 86 5 91 2 69 -43 -9 -19 -7 -18 10
3 11 14 21 28 21 33 0 4 5 7 10 7 11 0 13 -52 4 -87 -4 -14 -11 -20 -18 -16
-15 10 -206 20 -206 11 0 -5 38 -8 85 -8 46 0 96 -5 110 -12 23 -10 26 -16 21
-42 -6 -28 -5 -29 8 -11 14 19 15 19 25 -8 9 -22 8 -33 -4 -50 -18 -25 -20
-54 -4 -59 6 -2 -20 -31 -59 -65 -38 -34 -94 -95 -125 -136 -48 -62 -57 -80
-57 -115 l0 -41 208 -3 c114 -2 246 -2 293 0 82 3 87 4 98 29 10 23 10 25 -2
14 -12 -10 -17 -6 -26 20 -16 47 -14 59 13 59 13 0 32 8 43 18 19 17 18 18
-15 52 -20 21 -30 27 -24 14 6 -11 18 -26 26 -34 25 -20 19 -27 -24 -34 -43
-7 -85 8 -74 25 10 16 -3 52 -31 83 -17 20 -25 41 -25 68 0 21 -4 38 -9 38
-19 0 -22 40 -6 72 l16 33 -19 -24 -19 -24 -19 28 c-18 27 -18 28 5 67 13 22
18 38 13 34 -6 -3 -14 4 -18 16 -3 13 -17 45 -30 72 -25 51 -31 110 -14 136 6
10 4 22 -6 38 -9 13 -14 26 -11 28 3 3 15 -11 27 -30 12 -20 24 -36 26 -36 9
0 -15 36 -65 98 -58 74 -52 57 -90 237 -44 207 -46 249 -19 314 13 30 35 63
50 74 33 25 108 30 162 11 49 -18 60 -17 21 1 -16 8 -24 14 -17 15 21 0 53
-20 47 -30 -6 -10 29 -33 37 -24 3 2 11 -4 19 -13 12 -16 12 -17 -1 -8 -9 6
-6 1 7 -10 13 -12 23 -28 23 -37 0 -9 9 -33 21 -52 23 -40 37 -49 18 -13 -7
14 3 8 32 -19 40 -37 78 -64 93 -64 3 0 -15 19 -39 41 -47 43 -54 64 -13 35
12 -9 38 -16 58 -15 l35 1 -41 14 c-23 8 -52 26 -65 40 l-23 25 45 -17 c24 -8
82 -18 129 -20 122 -7 132 -10 125 -37 -5 -17 -4 -18 4 -7 8 11 19 -4 50 -70
54 -111 73 -197 81 -355 6 -127 13 -92 11 55 -1 96 -10 136 -47 224 -39 93
-38 86 -21 86 16 0 71 -125 61 -141 -4 -8 -3 -9 4 -5 12 7 26 -36 36 -115 27
-194 -104 -907 -165 -903 -9 1 -41 18 -72 37 -50 32 -57 41 -57 69 0 17 -7 39
-16 49 -14 16 -14 20 1 50 12 22 16 45 11 75 l-5 42 32 -8 c18 -4 61 -15 96
-24 38 -10 67 -14 73 -8 5 5 11 26 13 48 4 32 3 33 -3 9 -9 -38 -30 -41 -113
-20 -90 23 -129 49 -129 85 0 19 -13 44 -40 75 -22 25 -40 54 -40 64 0 16 7
18 70 13 66 -4 154 11 165 28 3 5 -16 2 -42 -6 -25 -8 -67 -14 -92 -13 l-46 0
55 18 c30 10 69 25 85 35 31 18 27 17 -60 -14 -27 -9 -67 -20 -88 -24 l-38 -7
7 71 c6 68 5 72 -20 99 -26 27 -26 31 -24 137 3 121 -1 132 -81 217 -35 37
-128 94 -138 84 -2 -3 15 -14 39 -25 38 -17 88 -55 88 -67 0 -2 -16 3 -36 11
-56 23 -50 10 7 -16 44 -21 69 -44 69 -65 0 -3 -8 -2 -17 3 -10 5 -31 12 -48
16 -18 4 -3 -7 35 -26 l65 -33 5 -150 c3 -83 7 -132 10 -110 l5 40 19 -28 c17
-25 18 -35 7 -119 l-12 -91 40 -47 c28 -33 38 -53 35 -68 -3 -11 4 -41 15 -67
25 -56 27 -107 6 -125 -8 -7 -15 -19 -15 -27 0 -8 -6 -24 -12 -36 -12 -21 -13
-19 -19 23 l-6 45 -1 -57 c-2 -57 -2 -57 -37 -64 -30 -5 -60 -24 -39 -24 17 0
84 24 84 30 0 3 9 16 21 29 26 27 49 13 49 -30 0 -24 8 -70 26 -156 4 -21 10
-23 74 -23 l70 0 33 46 c17 26 38 54 46 63 19 23 -17 -38 -45 -76 -13 -17 -24
-33 -24 -35 0 -2 25 -3 55 -3 48 0 55 3 56 20 l0 20 9 -20 c8 -19 9 -19 9 2 1
32 16 36 29 8 13 -29 44 -34 41 -7 -4 42 -1 45 47 38 28 -3 43 -2 39 4 -3 6
-16 10 -28 10 -26 0 -87 17 -106 29 -12 8 -12 18 3 69 9 34 14 71 11 84 -3 13
0 32 8 43 13 17 19 18 52 8 l36 -12 -2 181 c-2 148 -5 177 -16 163 -8 -12 -9
-23 -3 -36 6 -10 10 -78 10 -152 l0 -134 -31 5 c-45 7 -56 37 -40 120 8 37 22
86 32 109 31 69 22 70 -43 8 -59 -58 -59 -57 12 20 40 44 77 79 82 77 5 -1 14
10 20 25 11 26 12 23 23 -47 7 -41 18 -151 24 -245 6 -93 17 -196 25 -228 13
-55 13 -58 -7 -72 -12 -8 -26 -15 -33 -15 -6 0 -11 -7 -11 -15 0 -21 8 -19 46
13 32 27 33 28 23 80 -5 29 -6 55 -1 58 5 3 9 -9 9 -27 0 -18 7 -41 16 -50 14
-15 15 -23 5 -47 -7 -16 -9 -41 -5 -55 7 -29 19 -35 27 -14 3 6 6 2 6 -10 1
-18 7 -23 26 -23 l25 0 0 1000 0 1000 -245 0 -245 0 -1 -22 c-2 -27 -15 61
-28 189 -7 74 -16 105 -42 154 -80 149 -283 226 -451 170 -68 -23 -142 -65
-193 -110 l-30 -26 30 33 c37 41 123 93 194 117 38 12 75 16 135 14 71 -4 92
-9 158 -42 125 -61 208 -177 208 -288 0 -22 5 -71 11 -110 l12 -69 243 0 c143
0 245 -4 249 -10 3 -5 5 -451 5 -992 0 -541 3 -987 8 -993 4 -6 133 -9 360 -7
l352 3 0 1274 0 1275 -1020 0 -1020 0 25 -56z m205 -69 c-35 -20 -84 -54 -109
-78 -24 -23 -35 -30 -24 -15 11 14 33 38 49 51 31 26 122 76 139 76 6 0 -19
-15 -55 -34z m240 -41 c36 -42 70 -108 70 -139 0 -11 -11 6 -24 38 -28 67 -37
81 -85 125 -21 19 -27 29 -15 23 12 -6 36 -27 54 -47z m271 -86 c28 -55 23
-60 -7 -8 -14 25 -42 63 -62 85 l-37 40 43 -40 c24 -22 52 -57 63 -77z m-446
71 c-4 -17 -11 -73 -15 -123 l-9 -91 4 100 c4 94 12 145 22 145 3 0 1 -14 -2
-31z m406 -63 c16 -21 29 -44 29 -50 0 -6 -10 5 -21 24 -12 19 -35 51 -52 70
-20 21 -23 27 -8 15 13 -11 37 -38 52 -59z m-643 -63 c-21 -62 -35 -85 -25
-42 8 31 36 99 41 99 3 0 -5 -26 -16 -57z m410 22 c-3 -3 -9 2 -12 12 -6 14
-5 15 5 6 7 -7 10 -15 7 -18z m122 -22 c17 -28 18 -38 8 -44 -13 -8 -19 1 -32
54 -9 37 -2 34 24 -10z m-273 5 c-3 -8 -6 -5 -6 6 -1 11 2 17 5 13 3 -3 4 -12
1 -19z m353 -33 c0 -5 -5 -3 -10 5 -5 8 -10 20 -10 25 0 6 5 3 10 -5 5 -8 10
-19 10 -25z m-573 -7 c-3 -7 -5 -2 -5 12 0 14 2 19 5 13 2 -7 2 -19 0 -25z
m670 -5 c-3 -10 -5 -4 -5 12 0 17 2 24 5 18 2 -7 2 -21 0 -30z m-440 5 c-3 -8
-6 -5 -6 6 -1 11 2 17 5 13 3 -3 4 -12 1 -19z m205 -58 c7 -37 15 -55 20 -47
6 9 8 9 8 -1 0 -7 5 -10 10 -7 6 3 10 23 10 45 0 40 25 63 42 38 10 -17 10
-58 -1 -58 -5 0 -11 -9 -14 -20 -7 -27 17 -44 50 -34 16 4 31 7 36 6 12 -3 8
8 -14 31 -17 18 -18 23 -5 25 30 6 52 -18 74 -80 12 -35 22 -87 22 -116 0 -77
-30 -182 -56 -199 -34 -22 -179 -18 -250 6 -32 11 -60 18 -62 17 -1 -2 57 -34
130 -72 l133 -69 3 -59 c2 -33 10 -68 18 -80 17 -25 19 -14 2 14 -17 27 -9 31
40 18 44 -11 54 -31 30 -57 -10 -11 -10 -13 0 -7 8 5 12 0 12 -14 0 -21 -4
-21 -72 -17 -78 5 -149 18 -216 38 -37 11 -44 17 -61 64 -11 29 -22 79 -26
111 -11 109 -12 119 -18 134 -12 29 -36 193 -31 202 4 6 11 5 18 -2 8 -8 7
-13 -4 -21 -11 -7 -6 -9 19 -5 19 3 43 14 54 25 20 20 20 21 2 41 -18 20 -18
20 11 21 28 0 28 1 6 11 -16 8 -21 17 -16 31 3 10 6 47 6 81 1 59 1 60 14 31
7 -16 14 -41 14 -55 0 -14 7 -38 14 -55 l13 -30 8 27 c4 14 5 56 3 91 -4 79 7
77 24 -3z m158 41 c0 -5 2 -16 5 -23 3 -8 -2 -14 -13 -15 -12 -1 -18 6 -20 23
-1 15 3 24 13 24 8 0 15 -4 15 -9z m88 -96 l1 -20 -9 20 c-5 11 -8 34 -8 50
l0 30 8 -30 c4 -16 8 -39 8 -50z m-691 -32 c-2 -21 -4 -6 -4 32 0 39 2 55 4
38 2 -18 2 -50 0 -70z m322 -15 c1 -19 -45 -55 -57 -44 -3 4 0 11 8 16 7 5 15
21 17 37 6 49 15 61 23 33 5 -14 8 -33 9 -42z m258 45 c4 -12 -34 -29 -44 -19
-3 3 -3 12 1 21 7 18 37 17 43 -2z m-650 -45 c-2 -13 -4 -5 -4 17 -1 22 1 32
4 23 2 -10 2 -28 0 -40z m201 -63 c0 -16 -2 -15 -8 5 -4 14 -8 36 -8 50 0 22
1 22 8 -5 4 -16 8 -39 8 -50z m111 21 c-9 -8 -10 -7 -5 7 3 10 7 24 7 30 1 7
3 4 6 -7 3 -10 -1 -23 -8 -30z m-290 -40 c7 -26 7 -36 0 -29 -5 5 -12 27 -14
49 -6 44 -1 37 14 -20z m401 24 c3 0 -6 -10 -19 -21 -26 -21 -48 -12 -38 15 6
14 16 15 57 6z m-343 -47 c-3 -10 -5 -2 -5 17 0 19 2 27 5 18 2 -10 2 -26 0
-35z m700 15 c-3 -7 -5 -2 -5 12 0 14 2 19 5 13 2 -7 2 -19 0 -25z m-570 -20
c-3 -8 -6 -5 -6 6 -1 11 2 17 5 13 3 -3 4 -12 1 -19z m-168 -163 c-1 -34 -4
-28 -15 30 -7 34 -10 22 -16 -75 -5 -63 -10 -157 -12 -208 -2 -52 -7 -96 -10
-100 -9 -8 -7 483 1 505 9 22 52 -105 52 -152z m206 47 c4 -23 4 -42 0 -42
-21 0 -64 34 -74 59 -17 40 -11 64 19 71 28 7 42 -16 55 -88z m995 -359 c-1
-387 -3 -452 -14 -422 -7 20 -23 52 -35 72 -19 31 -21 48 -20 134 2 96 0 102
-32 163 -46 86 -99 110 -272 124 -27 2 -50 6 -51 7 -2 2 -6 88 -9 192 l-5 187
219 0 219 0 0 -457z m-1153 390 c-3 -10 -5 -2 -5 17 0 19 2 27 5 18 2 -10 2
-26 0 -35z m710 -228 l0 -100 -7 120 c-10 159 -12 228 -9 240 5 22 17 -166 16
-260z m-932 218 l7 -28 10 28 c6 17 17 27 29 27 17 0 19 -8 19 -60 0 -47 -3
-60 -15 -60 -8 0 -16 8 -16 18 -1 16 -2 16 -6 0 -2 -10 -11 -18 -19 -18 -8 0
-15 8 -15 18 -1 16 -2 16 -6 0 -2 -10 -11 -18 -19 -18 -11 0 -14 15 -14 60 0
52 2 60 19 60 12 0 21 -10 26 -27z m232 -80 c-3 -10 -5 -2 -5 17 0 19 2 27 5
18 2 -10 2 -26 0 -35z m160 -25 c-3 -7 -5 -2 -5 12 0 14 2 19 5 13 2 -7 2 -19
0 -25z m-190 -50 c-3 -7 -5 -2 -5 12 0 14 2 19 5 13 2 -7 2 -19 0 -25z m212
-18 c0 -9 -4 -8 -9 5 -5 11 -9 27 -9 35 0 9 4 8 9 -5 5 -11 9 -27 9 -35z
m-379 -32 c6 -24 13 -50 16 -59 3 -13 -4 -16 -41 -16 -25 0 -45 2 -45 5 0 2 7
28 16 58 19 66 39 70 54 12z m177 -55 c-3 -10 -5 -2 -5 17 0 19 2 27 5 18 2
-10 2 -26 0 -35z m233 2 c0 -5 -5 -3 -10 5 -5 8 -10 20 -10 25 0 6 5 3 10 -5
5 -8 10 -19 10 -25z m-65 5 c10 -11 16 -20 13 -20 -3 0 -13 9 -23 20 -10 11
-16 20 -13 20 3 0 13 -9 23 -20z m85 -53 c0 -4 -6 -2 -14 5 -8 7 -12 17 -9 22
5 8 23 -12 23 -27z m595 -27 c6 -10 -101 -130 -115 -130 -20 0 -18 34 3 50 13
10 32 34 42 54 19 36 56 49 70 26z m-98 -26 c3 -8 -2 -23 -11 -32 -15 -15 -16
-14 -16 16 0 33 16 43 27 16z m240 -12 c16 -11 42 -45 57 -74 25 -49 27 -60
25 -154 -2 -87 0 -105 18 -135 34 -56 53 -110 60 -169 4 -46 1 -64 -21 -109
-29 -62 -30 -65 -15 -55 8 4 9 -1 3 -17 -4 -13 -8 -42 -9 -64 -1 -22 -7 -80
-14 -129 -7 -49 -10 -115 -7 -147 3 -33 9 -86 12 -119 4 -38 3 -60 -4 -60 -15
0 -24 119 -26 355 -1 118 -4 217 -8 220 -3 4 -5 -22 -2 -57 4 -70 1 -61 -22
57 -28 147 -94 271 -210 396 -23 26 -54 69 -68 96 l-25 50 24 23 c14 13 29 19
36 14 8 -5 11 -2 6 8 -6 17 40 67 64 69 10 0 10 2 1 6 -6 2 -9 9 -6 15 10 17
99 3 131 -20z m-1206 -4 l0 -23 16 23 c19 27 49 31 37 5 -4 -10 -8 -31 -8 -48
0 -16 4 -38 8 -47 12 -27 -18 -23 -37 5 l-16 22 0 -22 c-1 -14 -7 -23 -16 -23
-12 0 -15 14 -15 65 0 51 3 65 15 65 9 0 15 -9 16 -22z m787 -65 c70 -4 92 -9
92 -20 0 -8 5 -11 10 -8 6 3 10 -1 10 -9 0 -11 -8 -14 -27 -11 -16 2 -62 6
-103 9 -81 6 -153 27 -182 53 -32 28 -20 31 45 11 34 -11 104 -22 155 -25z
m169 -85 c25 -66 9 -84 -21 -25 -20 39 -23 77 -6 77 4 0 16 -24 27 -52z m-929
-86 c2 -51 0 -62 -13 -62 -12 0 -15 13 -15 66 0 48 3 65 13 62 7 -3 13 -28 15
-66z m-21 -159 l6 -28 10 28 c5 17 16 27 28 27 17 0 19 -8 19 -60 0 -47 -3
-60 -15 -60 -8 0 -16 8 -16 18 -1 16 -2 16 -6 0 -2 -10 -11 -18 -19 -18 -8 0
-15 8 -15 18 -1 16 -2 16 -6 0 -2 -10 -11 -18 -19 -18 -11 0 -14 15 -14 60 0
53 2 60 20 60 13 0 22 -9 27 -27z m1380 -206 c-2 -23 -3 -1 -3 48 0 50 1 68 3
42 2 -26 2 -67 0 -90z m-1347 1 c6 -24 13 -50 16 -59 3 -13 -4 -16 -41 -16
-25 0 -45 2 -45 5 0 2 7 28 16 58 19 66 39 70 54 12z m238 -122 c3 -40 13 -87
23 -108 24 -48 24 -70 -1 -93 -20 -18 -20 -17 -20 8 0 28 15 45 23 25 3 -7 6
-3 6 9 1 24 -14 39 -24 23 -11 -18 -21 -11 -39 26 -14 31 -15 39 -3 53 27 31
32 45 14 38 -19 -7 -21 3 -10 78 8 65 24 35 31 -59z m1102 -273 c0 -307 -2
-345 -15 -327 -8 10 -15 33 -15 51 0 17 -4 34 -9 37 -7 5 -12 37 -26 186 l-4
45 9 -45 c5 -25 14 -74 19 -110 26 -167 28 -155 29 135 0 278 0 287 -15 230
-8 -33 -18 -94 -22 -135 l-8 -75 -2 61 c0 37 9 101 24 160 14 54 25 107 25
116 0 10 2 18 5 18 3 0 5 -156 5 -347z m-43 235 c-3 -8 -6 -5 -6 6 -1 11 2 17
5 13 3 -3 4 -12 1 -19z m-1080 -138 c3 -14 9 -29 13 -35 5 -6 -6 -23 -23 -40
-18 -17 -31 -28 -30 -26 1 2 -5 17 -14 32 -14 23 -15 31 -5 41 7 7 12 22 12
34 0 12 3 30 7 40 6 16 7 15 20 -2 8 -10 17 -30 20 -44z m903 6 c0 -2 -8 -10
-17 -17 -16 -13 -17 -12 -4 4 13 16 21 21 21 13z m-826 -76 c-5 -30 -1 -51 16
-87 25 -52 42 -123 29 -123 -16 0 -147 72 -164 90 -11 13 -15 26 -10 41 10 30
113 131 126 124 5 -4 6 -24 3 -45z m752 -142 l29 -33 -32 29 c-31 28 -38 36
-30 36 2 0 16 -15 33 -32z m4 -52 c0 -2 -9 -6 -20 -9 -11 -3 -18 -1 -14 4 5 9
34 13 34 5z m1 -93 c-6 -10 -22 -31 -36 -48 -20 -23 -19 -18 6 18 32 46 49 63
30 30z m-753 -128 c44 -27 79 -51 78 -53 -4 -4 -184 105 -201 121 -14 13 25
-8 123 -68z m1039 -27 c-2 -13 -4 -5 -4 17 -1 22 1 32 4 23 2 -10 2 -28 0 -40z
m-1090 1 c46 -18 82 -34 80 -36 -2 -2 -44 12 -93 31 -49 19 -85 35 -80 35 6 1
47 -13 93 -30z m836 -116 c-7 -2 -19 -2 -25 0 -7 3 -2 5 12 5 14 0 19 -2 13
-5z m-1095 -35 c7 -7 12 -25 12 -40 0 -23 -4 -28 -25 -28 -16 0 -25 6 -25 16
0 20 -24 13 -28 -9 -2 -10 11 -23 37 -37 40 -20 41 -21 41 -74 0 -63 -13 -78
-67 -78 -41 0 -63 21 -63 59 0 33 30 42 48 15 19 -29 32 -28 32 2 0 17 -9 27
-31 36 -47 20 -67 100 -33 134 18 19 85 21 102 4z m130 -53 c4 -91 16 -99 22
-15 5 73 6 75 33 78 32 4 32 2 17 -115 -20 -155 -15 -145 -63 -141 l-42 3 -12
95 c-6 52 -12 110 -12 128 -1 31 1 33 27 30 26 -3 27 -6 30 -63z m266 49 c24
-24 21 -64 -5 -64 -12 0 -27 7 -34 17 -7 9 -17 13 -23 9 -13 -7 -16 -103 -6
-130 9 -23 34 -20 34 4 0 11 -4 20 -10 20 -5 0 -10 11 -10 25 0 22 4 25 35 25
l35 0 0 -75 0 -76 -57 3 c-50 3 -59 6 -71 28 -17 33 -12 191 7 213 17 22 84
22 105 1z m366 -9 c0 -21 -5 -25 -30 -25 -25 0 -30 -4 -30 -25 0 -21 5 -25 30
-25 25 0 30 -4 30 -25 0 -21 -5 -25 -30 -25 -25 0 -30 -4 -30 -25 0 -21 5 -25
30 -25 27 0 30 -3 30 -30 l0 -30 -60 0 -60 0 0 130 0 130 60 0 c57 0 60 -1 60
-25z m184 9 c21 -21 21 -112 0 -142 -8 -12 -26 -22 -40 -22 -21 0 -24 -4 -24
-40 0 -38 -2 -40 -30 -40 l-30 0 0 130 0 130 54 0 c36 0 60 -5 70 -16z m184 4
c7 -7 12 -25 12 -40 0 -23 -4 -28 -25 -28 -16 0 -25 6 -25 16 0 9 -6 14 -12
12 -25 -9 -13 -38 22 -57 33 -17 35 -22 38 -73 3 -64 -11 -82 -65 -82 -39 0
-63 23 -63 61 0 33 30 42 48 15 19 -29 32 -28 32 2 0 17 -9 27 -30 36 -36 15
-50 37 -50 80 0 53 15 70 63 70 24 0 48 -5 55 -12z m-781 -80 c-3 -7 -5 -2 -5
12 0 14 2 19 5 13 2 -7 2 -19 0 -25z m-399 -99 c-3 -8 -7 -3 -11 10 -4 17 -3
21 5 13 5 -5 8 -16 6 -23z m1129 -1 c-3 -8 -6 -5 -6 6 -1 11 2 17 5 13 3 -3 4
-12 1 -19z"/>
<path d="M1560 2476 c0 -2 8 -10 18 -17 15 -13 16 -12 3 4 -13 16 -21 21 -21
13z"/>
<path d="M1601 2434 c0 -11 3 -14 6 -6 3 7 2 16 -1 19 -3 4 -6 -2 -5 -13z"/>
<path d="M1386 2145 c48 -63 59 -75 46 -50 -6 11 -27 38 -47 60 l-37 40 38
-50z"/>
<path d="M1185 2330 c3 -5 8 -10 11 -10 2 0 4 5 4 10 0 6 -5 10 -11 10 -5 0
-7 -4 -4 -10z"/>
<path d="M1201 2303 c-1 -6 -4 -20 -7 -30 -5 -17 -5 -17 6 0 6 10 9 23 6 30
-3 9 -5 9 -5 0z"/>
<path d="M1790 2345 c0 -13 23 -15 146 -15 81 0 154 -5 165 -10 18 -10 19 -23
19 -219 0 -193 2 -212 22 -257 18 -41 21 -65 20 -145 -2 -87 0 -101 23 -140
l25 -44 0 423 0 422 -210 0 c-180 0 -210 -2 -210 -15z"/>
<path d="M1794 2294 c3 -8 6 -38 6 -65 l0 -49 88 0 c48 0 94 -5 102 -10 11 -7
16 -34 18 -105 2 -52 7 -95 12 -95 4 0 24 -11 44 -25 l36 -25 -2 193 -3 192
-154 3 c-137 2 -153 1 -147 -14z"/>
<path d="M1809 2155 c-1 0 -3 -35 -5 -77 -4 -69 -2 -78 13 -79 10 -1 34 -3 53
-5 19 -1 52 -6 73 -9 l37 -7 0 85 0 86 -85 3 c-47 2 -85 3 -86 3z"/>
<path d="M2039 1790 c9 -27 17 -44 19 -39 4 11 -17 77 -27 83 -4 3 0 -17 8
-44z"/>
<path d="M1955 1772 c49 -52 52 -69 5 -32 -14 11 -29 20 -35 20 -5 0 19 -19
55 -41 36 -23 82 -58 103 -77 20 -20 37 -31 37 -25 0 6 -7 16 -15 23 -9 7 -15
29 -15 51 0 21 -4 41 -10 44 -5 3 -10 1 -10 -4 0 -18 -20 -12 -27 7 -10 26
-43 67 -43 52 0 -7 -9 -2 -21 11 l-21 24 16 -25 c26 -41 18 -43 -26 -9 l-43
32 50 -51z m80 -47 c9 -22 12 -35 6 -30 -5 6 -17 28 -26 50 -9 22 -12 36 -6
30 5 -5 17 -28 26 -50z"/>
<path d="M1810 1803 c0 -6 8 -17 18 -24 16 -13 16 -13 2 6 -8 11 -16 22 -17
24 -2 2 -3 0 -3 -6z"/>
<path d="M1847 1749 c4 -9 41 -52 82 -95 41 -43 64 -64 51 -45 -28 40 -145
164 -133 140z"/>
<path d="M2040 1487 c22 -46 46 -110 55 -142 17 -65 29 -87 19 -34 -9 46 -45
143 -78 207 -42 82 -39 61 4 -31z"/>
<path d="M1750 280 c0 -25 4 -39 10 -35 6 3 10 19 10 35 0 16 -4 32 -10 35 -6
4 -10 -10 -10 -35z"/>
<path d="M677 2359 c12 -12 24 -21 27 -18 2 2 -8 13 -22 23 l-27 19 22 -24z"/>
<path d="M681 2029 c-13 -10 -19 -19 -15 -19 13 1 48 29 43 34 -2 2 -15 -4
-28 -15z"/>
<path d="M180 1827 c0 -2 15 -16 33 -33 l32 -29 -29 33 c-28 30 -36 37 -36 29z"/>
<path d="M255 1822 c6 -6 98 -55 205 -108 107 -53 207 -105 223 -116 l27 -19
0 88 0 88 -62 -4 c-93 -5 -265 28 -383 74 -14 6 -17 5 -10 -3z"/>
<path d="M301 1688 c29 -38 54 -68 56 -68 7 0 -33 53 -72 95 -20 22 -13 10 16
-27z"/>
<path d="M25 1293 c17 -8 57 -38 90 -66 48 -41 53 -43 25 -13 -37 40 -116 96
-134 96 -6 -1 2 -8 19 -17z"/>
<path d="M1484 1201 c-7 -46 -7 -45 -37 -30 -21 11 -21 10 2 -15 14 -14 26
-26 27 -26 5 0 24 103 20 108 -3 2 -8 -14 -12 -37z"/>
<path d="M1845 1066 c-9 -74 -15 -140 -13 -147 2 -7 12 52 22 130 10 78 16
144 14 147 -3 2 -13 -56 -23 -130z"/>
<path d="M674 1158 c-3 -4 4 -8 15 -8 12 0 21 4 21 8 0 5 -7 9 -15 9 -9 0 -18
-4 -21 -9z"/>
<path d="M220 1095 c1 -13 100 -193 100 -181 0 10 -48 106 -79 156 -11 19 -21
31 -21 25z"/>
<path d="M1430 1026 c0 -2 9 -6 20 -9 11 -3 18 -1 14 4 -5 9 -34 13 -34 5z"/>
<path d="M1480 1006 c0 -2 8 -10 18 -17 15 -13 16 -12 3 4 -13 16 -21 21 -21
13z"/>
<path d="M1496 880 c21 -22 43 -40 50 -40 6 0 -6 18 -27 40 -21 22 -43 40 -49
40 -7 0 5 -18 26 -40z"/>
<path d="M45 801 c68 -24 91 -37 150 -81 41 -31 98 -100 82 -100 -3 0 -33 13
-68 29 -98 45 -125 46 -31 2 128 -62 154 -85 177 -159 l7 -23 -39 19 c-47 24
-143 56 -149 50 -2 -3 15 -11 38 -18 59 -17 135 -56 180 -93 39 -31 41 -47 7
-47 -18 0 -19 -8 -19 -140 l0 -140 25 0 c23 0 25 -3 25 -50 0 -27 5 -50 10
-50 6 0 10 31 11 73 0 59 2 68 11 50 8 -17 20 -23 45 -23 31 0 33 2 33 33 0
17 -4 48 -10 67 -6 22 -6 38 0 44 15 15 12 89 -5 113 -8 12 -27 23 -42 25 -20
2 -27 9 -29 32 -2 15 -14 45 -28 65 -111 160 -150 204 -236 264 -50 35 -145
77 -175 76 -11 0 3 -8 30 -18z m476 -452 c6 -12 8 -39 5 -63 -9 -59 -9 -65 -1
-123 8 -53 8 -53 -19 -53 -28 0 -31 4 -41 63 -9 54 -25 46 -25 -13 0 -47 -2
-50 -25 -50 l-25 0 0 130 0 130 60 0 c50 0 61 -3 71 -21z"/>
<path d="M444 305 c-8 -19 2 -45 16 -45 5 0 10 14 10 30 0 31 -16 41 -26 15z"/>
<path d="M2050 490 c-8 -5 -10 -10 -5 -10 6 0 17 5 25 10 8 5 11 10 5 10 -5 0
-17 -5 -25 -10z"/>
<path d="M2232 378 c-15 -15 -17 -241 -2 -269 11 -19 35 -24 64 -13 11 4 16
19 16 43 0 31 4 37 23 38 38 3 57 38 57 108 0 57 -3 66 -26 84 -30 24 -112 29
-132 9z m132 -30 c20 -29 21 -107 1 -135 -8 -12 -28 -23 -43 -25 -23 -3 -27
-8 -30 -41 -3 -32 -7 -37 -28 -37 l-24 0 0 130 0 130 54 0 c45 0 58 -4 70 -22z"/>
<path d="M2294 295 c-7 -30 2 -59 16 -50 13 8 13 62 0 70 -5 3 -12 -6 -16 -20z"/>
<path d="M2424 377 c-2 -7 -3 -71 -2 -141 3 -141 9 -155 61 -142 21 5 27 13
28 34 l1 27 10 -28 c10 -28 45 -44 73 -33 13 5 15 28 13 148 l-3 143 -32 3
c-23 2 -35 -2 -45 -17 -12 -19 -12 -19 -26 0 -15 22 -70 26 -78 6z m90 -67
l21 -55 3 58 c3 56 4 57 32 57 l30 0 0 -130 0 -130 -29 0 c-25 0 -31 6 -49 53
l-21 52 0 -52 c-1 -52 -2 -53 -31 -53 l-30 0 0 131 0 130 26 -3 c22 -2 31 -13
48 -58z"/>
<path d="M2676 369 c-25 -20 -26 -24 -26 -124 0 -139 9 -151 118 -147 l42 2
-1 125 c0 121 -1 125 -26 145 -33 26 -73 25 -107 -1z m101 -7 c7 -4 16 -22 19
-40 6 -28 4 -32 -16 -32 -13 0 -29 8 -36 18 -22 30 -35 1 -32 -69 2 -51 6 -64
21 -67 20 -4 25 34 5 40 -6 2 -12 14 -13 26 -1 19 3 22 37 22 l38 0 0 -75 0
-75 -55 0 c-77 0 -88 18 -83 145 2 71 7 98 18 105 18 12 80 13 97 2z"/>
<path d="M68 373 c68 -4 72 -5 72 -28 0 -17 -6 -25 -22 -27 -22 -3 -23 -8 -26
-105 -3 -102 -3 -103 -27 -103 -25 0 -25 0 -25 105 0 103 -1 105 -22 104 -17
-1 -19 -2 -5 -6 15 -4 17 -18 17 -109 l0 -104 35 0 35 0 0 100 c0 99 0 101 26
110 20 8 25 16 22 38 -3 27 -4 27 -78 28 l-75 1 73 -4z"/>
<path d="M196 358 c-12 -17 -16 -48 -16 -119 0 -119 13 -142 79 -142 60 0 73
17 79 107 9 137 -10 176 -83 176 -34 0 -47 -5 -59 -22z m122 -18 c19 -38 12
-194 -10 -217 -23 -23 -87 -21 -105 3 -16 22 -18 196 -2 225 8 16 19 19 57 17
38 -2 49 -8 60 -28z"/>
<path d="M244 306 c-10 -26 1 -139 14 -144 9 -3 12 17 12 77 0 49 -4 81 -10
81 -6 0 -13 -6 -16 -14z m13 -103 c-2 -21 -4 -4 -4 37 0 41 2 58 4 38 2 -21 2
-55 0 -75z"/>
<path d="M587 284 c-4 -4 -7 -20 -7 -36 l0 -28 71 0 70 0 -3 33 c-3 32 -3 32
-63 35 -34 2 -64 0 -68 -4z m121 -31 c3 -22 0 -23 -57 -23 -59 0 -61 1 -61 25
0 25 2 26 58 23 50 -3 57 -6 60 -25z"/>
<path d="M1337 283 c-4 -3 -7 -19 -7 -33 0 -23 5 -29 31 -34 85 -17 127 1 115
49 -6 23 -10 25 -70 25 -34 0 -66 -3 -69 -7z m121 -30 c3 -22 0 -23 -57 -23
-59 0 -61 1 -61 25 0 25 2 26 58 23 50 -3 57 -6 60 -25z"/>
<path d="M2057 283 c-12 -11 -8 -50 6 -61 6 -6 39 -10 72 -9 l60 2 3 38 3 37
-69 0 c-38 0 -72 -3 -75 -7z m131 -30 c3 -22 0 -23 -57 -23 -59 0 -61 1 -61
25 0 25 2 26 58 23 50 -3 57 -6 60 -25z"/>
<path d="M2847 284 c-12 -12 -8 -62 6 -66 24 -9 112 -8 125 0 8 5 12 22 10 38
-3 28 -4 29 -68 32 -36 2 -69 0 -73 -4z m131 -31 c3 -22 0 -23 -57 -23 -59 0
-61 1 -61 25 0 25 2 26 58 23 50 -3 57 -6 60 -25z"/>
<path d="M1382 175 c0 -16 2 -22 5 -12 2 9 2 23 0 30 -3 6 -5 -1 -5 -18z"/>
<path d="M1746 55 c4 -16 11 -37 15 -45 6 -10 7 -4 3 15 -4 17 -11 37 -15 45
-6 10 -7 4 -3 -15z"/>
<path d="M1970 40 c0 -29 4 -40 15 -40 11 0 15 11 15 40 0 29 -4 40 -15 40
-11 0 -15 -11 -15 -40z"/>
<path d="M2020 40 l0 -40 40 0 40 0 0 40 0 40 -40 0 -40 0 0 -40z"/>
<path d="M2127 73 c-4 -3 -7 -21 -7 -40 l0 -33 440 0 440 0 0 40 0 40 -433 0
c-239 0 -437 -3 -440 -7z"/>
</g>
</svg>
