<?xml version="1.0" standalone="no"?>
<!DOCTYPE svg PUBLIC "-//W3C//DTD SVG 20010904//EN"
 "http://www.w3.org/TR/2001/REC-SVG-20010904/DTD/svg10.dtd">
<svg version="1.0" xmlns="http://www.w3.org/2000/svg"
 width="1140.000000pt" height="815.000000pt" viewBox="0 0 1140.000000 815.000000"
 preserveAspectRatio="xMidYMid meet">

<g transform="translate(0.000000,815.000000) scale(0.100000,-0.100000)"
fill="#000000" stroke="none">
<path d="M5480 6780 c-119 -10 -307 -42 -427 -75 -538 -145 -1054 -519 -1296
-940 -160 -278 -247 -649 -234 -990 6 -165 33 -268 96 -362 47 -70 76 -97 161
-155 l65 -44 7 -160 c29 -632 71 -1205 104 -1424 36 -236 132 -701 148 -717
17 -18 26 20 27 120 l1 112 18 -108 c10 -60 21 -111 24 -114 11 -11 26 10 26
38 0 18 4 28 10 24 6 -3 10 -16 10 -29 0 -12 5 -27 12 -34 17 -17 127 -16 134
2 3 7 -17 249 -45 537 -58 599 -74 802 -69 841 2 23 24 -7 127 -180 194 -324
369 -590 430 -652 81 -81 115 -95 231 -94 67 1 126 9 200 27 57 15 107 23 111
19 13 -13 84 -361 75 -368 0 -1 -47 -31 -102 -66 -56 -36 -104 -71 -108 -77
-4 -6 3 -13 16 -16 13 -3 613 -4 1333 -3 l1310 3 -2 55 c-2 30 -12 87 -24 125
-56 185 -163 302 -324 351 -33 10 -61 19 -63 20 -2 1 7 30 19 65 30 90 37 243
14 328 -24 93 -67 172 -125 229 l-51 50 50 56 c176 194 329 427 386 586 87
244 69 810 -41 1259 -61 254 -202 658 -290 834 -71 141 -225 347 -351 468
-359 348 -925 511 -1593 459z m-415 -1582 c6 -15 2 -18 -29 -18 -35 0 -36 1
-36 38 0 20 3 54 7 76 l6 39 22 -59 c12 -33 26 -67 30 -76z m-273 -6 c17 -51
29 -94 27 -95 -2 -2 -21 -15 -41 -30 l-38 -28 0 125 c0 119 9 190 18 141 2
-11 18 -62 34 -113z m653 -81 c113 -142 118 -152 138 -274 6 -36 4 -39 -27
-52 -18 -8 -42 -11 -54 -8 -20 5 -20 6 -5 30 l17 26 -32 -17 c-45 -23 -57 -20
-69 19 -11 35 -11 35 19 35 41 0 31 24 -12 30 -31 5 -34 9 -52 70 -16 57 -48
233 -48 268 0 6 3 12 8 12 4 -1 57 -63 117 -139z m-897 -164 c63 -138 180
-297 218 -297 17 0 17 15 0 142 -31 221 -33 201 19 244 25 20 47 35 49 33 1
-2 19 -35 40 -73 20 -38 52 -89 71 -113 l34 -45 -34 -50 c-19 -28 -35 -54 -35
-59 0 -16 29 -9 35 9 3 9 16 30 30 46 23 28 24 29 48 13 31 -20 37 -14 30 28
-7 45 20 59 117 59 73 1 76 0 123 -39 l48 -40 -93 -3 c-84 -3 -95 -5 -120 -29
-24 -22 -32 -25 -70 -19 l-42 7 24 -26 c23 -24 24 -28 9 -53 -11 -21 -23 -28
-54 -30 l-40 -3 25 -19 25 -19 -21 -28 c-11 -15 -26 -38 -33 -51 -11 -21 -10
-22 11 -17 21 5 25 1 35 -38 9 -31 19 -47 38 -55 24 -11 25 -13 11 -34 l-15
-23 71 3 c51 3 73 0 79 -10 7 -10 9 -10 9 0 0 8 19 12 59 12 38 0 61 -4 64
-12 4 -9 6 -8 6 3 1 23 96 46 118 28 14 -12 15 -11 10 6 -5 16 3 26 37 48 24
15 51 27 59 27 11 0 14 6 10 15 -3 9 1 23 9 33 28 32 99 172 93 182 -3 5 1 10
9 10 8 0 28 12 43 26 27 25 24 26 -24 7 -10 -3 -5 4 10 17 36 29 30 34 -21 16
-23 -9 -42 -12 -42 -8 0 4 9 36 21 72 11 36 26 102 32 147 l12 83 33 -54 c30
-51 34 -67 52 -233 87 -793 139 -1922 110 -2378 -16 -252 5 -212 -190 -358
-170 -128 -213 -148 -224 -109 -2 9 -10 51 -16 92 -24 154 -42 247 -61 322
-10 42 -19 81 -19 86 0 5 27 21 60 35 33 15 60 28 60 30 0 3 -61 -15 -135 -38
-234 -75 -368 -88 -455 -45 -87 44 -239 258 -540 765 -193 323 -211 373 -214
570 -1 108 13 267 21 233 5 -20 18 -24 28 -8 10 16 23 12 30 -10 8 -26 22 -26
30 1 6 16 13 20 36 17 16 -3 29 0 29 5 0 5 22 31 50 58 59 57 69 88 48 146
-15 41 -15 43 3 43 26 0 24 9 -8 42 -23 24 -24 28 -8 28 17 0 16 3 -6 26 -31
34 -115 74 -156 74 -31 0 -33 2 -33 36 0 30 3 35 22 32 11 -2 23 3 25 10 3 7
-5 12 -20 12 -23 0 -25 4 -30 68 -11 109 -10 112 18 112 15 0 42 -15 67 -37
27 -25 37 -31 30 -17 -17 32 -80 84 -101 84 -17 0 -18 7 -15 68 12 185 16 232
23 232 4 0 13 -27 19 -60 18 -87 60 -206 95 -273 34 -66 101 -146 112 -135 4
4 -2 54 -14 110 -43 210 -48 346 -19 517 l11 64 37 -109 c20 -60 51 -140 68
-177z m556 166 c10 -20 39 -69 64 -107 26 -39 51 -77 55 -84 7 -11 0 -12 -35
-7 -25 3 -64 0 -95 -8 -47 -13 -53 -12 -57 2 -8 27 -26 170 -26 207 0 33 1 34
38 34 34 0 40 -4 56 -37z m2064 -317 c65 -34 141 -153 163 -256 21 -98 -18
-234 -110 -385 -27 -44 -62 -107 -79 -140 -45 -90 -86 -141 -137 -171 -46 -26
-55 -27 -148 -12 -17 3 -25 -13 -101 -197 l-17 -40 25 29 c13 16 37 55 54 86
l29 57 25 -71 c25 -69 26 -80 31 -376 6 -324 18 -442 61 -591 l23 -79 -51 0
c-74 0 -230 -25 -311 -51 -74 -22 -235 -97 -320 -147 l-51 -30 18 171 c50 500
51 511 45 1379 l-6 816 82 -39 c45 -22 117 -56 160 -76 42 -21 77 -40 77 -43
0 -3 -14 -13 -32 -23 -24 -14 -28 -21 -19 -30 16 -16 167 -22 217 -8 25 7 40
7 42 1 8 -22 20 -7 41 49 24 67 98 156 146 177 40 18 109 17 143 0z m-1875
-98 c-56 -58 -67 -121 -33 -187 21 -42 74 -81 109 -81 39 0 21 -18 -30 -30
-63 -15 -186 -8 -252 15 -86 30 -99 83 -40 161 79 106 115 133 193 145 87 13
87 12 53 -23z m-1198 -173 l25 -43 -26 -17 c-34 -22 -18 -41 20 -24 24 11 29
10 56 -16 48 -46 38 -72 -20 -55 -42 12 -47 7 -27 -24 15 -23 15 -24 -5 -29
-37 -10 -64 9 -86 61 -34 78 -44 140 -37 222 11 130 14 133 46 45 16 -42 40
-96 54 -120z m1524 170 c19 -18 9 -52 -31 -106 l-33 -44 -3 30 c-5 56 -12 75
-43 110 l-31 35 64 -6 c34 -4 69 -12 77 -19z m-285 -63 c3 -5 -1 -9 -9 -9 -8
0 -12 4 -9 9 3 4 7 8 9 8 2 0 6 -4 9 -8z m185 -84 c-24 -85 -121 -119 -197
-70 -48 31 -72 122 -32 122 15 0 20 -7 20 -24 0 -34 38 -75 76 -82 43 -8 95
37 98 84 2 43 28 61 38 26 3 -13 2 -39 -3 -56z m-49 26 c0 -33 -36 -64 -75
-64 -38 0 -75 31 -75 62 0 27 25 22 38 -8 9 -19 18 -25 39 -22 34 4 52 31 36
57 -11 17 -10 18 13 7 14 -6 24 -20 24 -32z m-1154 -269 c19 -14 19 -14 -2
-15 -46 0 -104 -71 -104 -125 0 -52 45 -110 94 -121 l31 -7 -30 -13 c-33 -14
-94 -18 -110 -6 -26 18 -85 156 -85 198 0 7 27 33 61 58 65 49 108 59 145 31z
m51 -41 c-3 -3 -12 -4 -19 -1 -8 3 -5 6 6 6 11 1 17 -2 13 -5z m29 -39 c1 -8
-1 -17 -5 -19 -4 -3 -7 6 -7 19 0 25 8 25 12 0z m-91 -4 c3 -5 2 -12 -3 -15
-5 -3 -9 1 -9 9 0 17 3 19 12 6z m95 -54 c0 -37 -23 -60 -60 -60 -30 0 -60 22
-60 45 0 14 28 9 34 -7 3 -8 14 -15 25 -15 22 0 45 32 33 45 -4 5 -1 5 6 1 6
-4 12 -2 12 3 0 6 2 11 5 11 3 0 5 -10 5 -23z m-103 -57 c14 -11 33 -20 43
-20 29 0 70 39 71 68 2 27 2 27 6 2 7 -34 -25 -90 -51 -92 -49 -3 -73 4 -98
32 -30 32 -36 65 -15 73 7 2 13 -6 15 -19 2 -13 15 -33 29 -44z m2793 -1496
c17 -4 34 -14 37 -23 49 -154 124 -311 188 -396 l35 -45 -61 0 c-87 0 -140
-15 -264 -75 -105 -51 -217 -128 -154 -106 15 5 76 35 138 65 161 81 258 101
386 78 l40 -8 -75 -51 c-97 -65 -125 -96 -55 -60 28 14 102 55 164 91 63 36
122 66 131 66 22 0 212 -93 227 -111 6 -8 15 -38 19 -67 l7 -52 -826 0 -826 0
5 33 c2 17 13 120 24 227 23 229 9 206 190 299 130 67 238 105 355 125 85 15
261 20 315 10z m-1232 -556 c-4 -40 -10 -88 -13 -105 l-6 -33 -125 0 c-75 0
-123 4 -119 9 7 13 256 201 264 201 4 0 4 -33 -1 -72z m-415 -87 c5 -24 6 -45
4 -47 -2 -3 -42 -4 -88 -2 l-84 3 70 47 c39 25 74 45 80 44 5 -1 13 -22 18
-45z"/>
<path d="M4301 4478 c0 -7 16 -26 35 -41 31 -27 34 -27 34 -9 0 12 -13 30 -29
41 -34 24 -41 26 -40 9z"/>
<path d="M5591 4295 c-40 -58 -70 -105 -67 -105 2 0 33 42 69 93 71 102 80
117 74 117 -2 0 -36 -47 -76 -105z"/>
<path d="M5719 4373 c-13 -16 -12 -17 4 -4 9 7 17 15 17 17 0 8 -8 3 -21 -13z"/>
<path d="M5485 4354 c-9 -15 -12 -23 -6 -20 11 7 35 46 28 46 -3 0 -12 -12
-22 -26z"/>
<path d="M5738 4298 c-70 -99 -112 -164 -96 -148 20 20 151 210 145 210 -3 0
-25 -28 -49 -62z"/>
<path d="M5651 4275 c-29 -41 -50 -75 -47 -75 2 0 24 28 48 63 51 71 61 87 55
87 -3 0 -28 -34 -56 -75z"/>
<path d="M5453 4198 c-115 -164 -145 -208 -139 -208 2 0 35 44 72 98 37 53 87
125 111 160 25 34 42 62 40 62 -3 0 -41 -51 -84 -112z"/>
<path d="M5359 4173 c-122 -174 -121 -173 -116 -173 3 0 47 60 98 133 51 72
97 138 102 145 5 6 7 12 4 12 -3 0 -43 -53 -88 -117z"/>
<path d="M5207 4163 c-57 -83 -77 -115 -60 -98 17 17 125 175 120 175 -3 0
-30 -35 -60 -77z"/>
<path d="M5288 4168 c-69 -99 -92 -134 -76 -118 20 20 131 180 125 180 -3 0
-25 -28 -49 -62z"/>
<path d="M5008 4108 c-70 -100 -92 -134 -76 -118 20 20 131 180 125 180 -3 0
-25 -28 -49 -62z"/>
<path d="M5073 4138 c-39 -51 -106 -151 -97 -145 12 7 118 157 111 157 -3 0
-9 -6 -14 -12z"/>
<path d="M5090 4075 c-17 -25 -29 -45 -26 -45 3 0 19 20 36 45 17 25 29 45 26
45 -3 0 -19 -20 -36 -45z"/>
<path d="M4463 3922 c-28 -38 -65 -113 -59 -119 7 -7 73 86 85 120 13 35 0 35
-26 -1z"/>
<path d="M4300 3870 c-48 -71 -47 -81 2 -12 43 59 51 72 44 72 -3 0 -24 -27
-46 -60z"/>
<path d="M4338 3858 c-29 -39 -41 -58 -35 -58 2 0 18 20 36 45 37 51 36 62 -1
13z"/>
<path d="M4220 3825 c-17 -25 -29 -45 -26 -45 3 0 19 20 36 45 17 25 29 45 26
45 -3 0 -19 -20 -36 -45z"/>
<path d="M4400 3681 c0 -22 39 -89 79 -135 62 -72 54 -30 -12 59 -70 95 -67
91 -67 76z"/>
<path d="M4597 3663 c-4 -3 -7 -12 -7 -19 0 -9 7 -10 30 -1 17 6 30 15 30 19
0 10 -44 11 -53 1z"/>
<path d="M5145 3548 c-68 -51 -106 -65 -214 -77 -127 -15 -214 -41 -268 -80
-47 -34 -101 -107 -109 -148 -5 -25 1 -34 44 -70 44 -38 50 -47 55 -93 15
-127 126 -273 228 -300 98 -27 161 56 184 239 6 45 14 62 50 100 54 58 63 92
57 221 -3 89 -1 115 17 167 12 34 21 65 21 68 0 13 -28 1 -65 -27z m-225 -122
c-25 -13 -83 -38 -129 -56 -62 -24 -96 -44 -129 -77 -40 -41 -72 -51 -72 -23
0 18 83 101 120 120 43 22 141 49 195 53 22 2 45 4 50 5 6 1 -10 -9 -35 -22z
m204 -122 c11 -4 16 -19 16 -48 0 -49 -19 -88 -59 -122 -33 -27 -44 -56 -61
-158 -13 -79 -41 -140 -71 -157 -65 -34 -191 61 -241 181 -44 105 -29 164 53
203 30 14 65 29 78 32 21 6 23 5 16 -11 -18 -43 -27 -123 -20 -170 l8 -49 13
84 c20 136 53 184 142 211 33 10 104 12 126 4z"/>
<path d="M7097 4735 c-22 -7 -49 -23 -62 -35 -29 -27 -64 -106 -67 -151 -3
-31 0 -34 27 -37 59 -7 122 -79 146 -165 15 -57 0 -79 -85 -121 -60 -30 -81
-46 -103 -82 -15 -24 -32 -44 -37 -44 -5 0 -6 22 -4 49 3 34 13 59 31 81 29
34 36 87 15 108 -20 20 -27 13 -15 -17 9 -24 7 -34 -9 -56 -47 -67 -54 -82
-54 -122 0 -48 17 -93 36 -93 7 0 23 15 35 33 42 61 74 89 135 117 34 15 68
38 78 51 49 70 -25 233 -124 273 -22 9 -40 21 -40 27 0 14 41 109 47 109 3 0
14 -11 25 -25 21 -26 87 -65 110 -65 7 1 -3 9 -22 19 -38 21 -73 56 -83 84 -5
14 1 21 28 33 19 7 47 14 62 14 16 0 23 4 18 9 -19 17 -51 20 -88 6z"/>
<path d="M4015 491 c-48 -22 -79 -54 -100 -103 -11 -29 -15 -77 -15 -213 l0
-175 1801 0 1800 0 -3 189 -3 189 -30 44 c-18 25 -49 52 -75 66 l-44 22 -1646
0 c-1578 0 -1647 -1 -1685 -19z m558 -132 c25 -14 37 -28 37 -46 0 -16 -52
-17 -67 -2 -15 15 -44 4 -37 -15 3 -8 17 -17 32 -21 51 -12 72 -33 72 -70 0
-43 -29 -65 -86 -65 -34 0 -47 5 -63 26 -12 15 -21 31 -21 35 0 16 62 9 75 -8
7 -9 17 -13 23 -9 24 14 11 34 -33 51 -68 26 -84 67 -40 110 26 27 72 33 108
14z m148 -74 c29 -89 28 -90 65 28 16 52 20 57 46 57 15 0 28 -3 28 -7 0 -5
-16 -56 -37 -115 l-37 -108 -37 0 -37 0 -36 101 c-44 123 -45 131 -8 127 24
-3 30 -11 53 -83z m329 68 c27 -18 49 -43 50 -55 0 -12 -68 -10 -75 2 -12 20
-64 11 -80 -14 -31 -47 7 -105 61 -92 32 8 30 24 -3 28 -20 2 -28 9 -28 23 0
18 8 20 63 23 61 3 62 3 62 -23 0 -124 -188 -145 -220 -25 -27 102 86 191 170
133z m241 -12 c24 -29 24 -46 2 -69 -17 -16 -17 -18 0 -34 9 -10 17 -29 17
-42 0 -39 -35 -56 -112 -56 l-68 0 0 116 0 116 71 -4 c60 -3 74 -8 90 -27z
m220 12 c31 -18 59 -67 59 -103 0 -29 -26 -76 -52 -94 -12 -9 -42 -16 -66 -16
-58 0 -98 29 -112 80 -28 103 80 187 171 133z m174 -40 c14 -32 29 -67 33 -77
7 -16 14 -6 40 55 29 71 32 74 64 74 l33 0 3 -112 3 -113 -30 0 c-29 0 -30 1
-33 58 l-3 57 -21 -55 c-17 -44 -26 -56 -46 -58 -21 -3 -28 4 -46 45 l-20 48
-1 -47 c-1 -46 -2 -48 -31 -48 l-30 0 0 115 0 115 30 0 c27 0 33 -6 55 -57z
m376 28 c24 -29 24 -46 2 -69 -17 -16 -17 -18 0 -34 9 -10 17 -29 17 -42 0
-39 -35 -56 -112 -56 l-68 0 0 116 0 116 71 -4 c60 -3 74 -8 90 -27z m299 14
c26 -13 50 -42 50 -59 0 -10 -69 -6 -75 4 -9 14 -58 13 -73 -2 -17 -17 -15
-74 4 -92 19 -20 44 -20 70 -1 25 19 74 20 74 1 0 -8 -14 -26 -31 -40 -47 -40
-110 -37 -155 8 -28 28 -34 42 -34 76 0 52 13 76 53 100 38 24 78 25 117 5z
m240 0 c42 -21 60 -53 60 -103 0 -37 -6 -50 -34 -78 -49 -49 -113 -49 -162 0
-26 26 -34 42 -34 70 0 97 88 154 170 111z m193 -64 c25 -61 32 -71 39 -55 56
132 57 134 88 134 l30 0 0 -115 0 -115 -30 0 c-29 0 -30 2 -31 48 l-1 47 -20
-48 c-18 -41 -25 -48 -46 -45 -20 2 -29 14 -46 58 l-21 55 -3 -57 c-3 -57 -4
-58 -32 -58 l-30 0 0 108 c0 60 3 112 7 116 4 4 20 6 36 4 25 -3 32 -12 60
-77z m-629 -106 c8 -22 -4 -45 -24 -45 -10 0 -23 7 -30 15 -15 18 2 45 30 45
10 0 20 -7 24 -15z"/>
<path d="M5190 300 c0 -14 7 -20 23 -20 13 0 26 3 30 6 12 12 -6 34 -29 34
-17 0 -24 -6 -24 -20z"/>
<path d="M5190 205 c0 -26 22 -33 49 -16 21 13 5 41 -24 41 -20 0 -25 -5 -25
-25z"/>
<path d="M5405 286 c-34 -51 15 -113 70 -88 29 14 40 48 26 85 -14 37 -73 39
-96 3z"/>
<path d="M5960 300 c0 -14 7 -20 23 -20 13 0 26 3 30 6 12 12 -6 34 -29 34
-17 0 -24 -6 -24 -20z"/>
<path d="M5960 205 c0 -26 22 -33 49 -16 21 13 5 41 -24 41 -20 0 -25 -5 -25
-25z"/>
<path d="M6500 291 c-35 -66 35 -136 83 -83 20 22 22 73 5 90 -20 20 -76 15
-88 -7z"/>
</g>
</svg>
